<svg enable-background="new 0 0 1376.94 465.7" version="1.1" viewBox="0 0 1376.9 465.7" xmlns="http://www.w3.org/2000/svg">
 <g fill="#0070b8">
  <path d="m204.02 242.33c10.32 33.44 18.16 70.39 18.16 70.39 4.69 47.64-12.18 87.38-12.18 87.38-13.15 42.02 0.65 41.26 0.65 41.26-7.5 25.41-22.04 24.33-22.04 24.33-4.84-41.59 6.98-70.03 6.98-70.03s16.47-39.32 14.87-79.03c0 0-4.14-31.16-13.02-63.42 0 0 3.65-3.58 5.5-8.7z"/>
  <path d="m221.61 332.54c26.73-42.13 61.69-20.31 99.21-45.81 47.14-32.03 61.92-71.02 55.63-101.35-21.13 24.22-51.17 18.68-86.56 38.74-35.38 20.03-53.75 38.78-55.67 68.86-0.24 3.89-1.66 13.45-4.09 15.54-4.3 3.71-10.73 10.28-13.2 18.07 0-0.01 0.6 2.84 4.68 5.95"/>
  <path d="m210.35 347.34c-25.41-26.49-54.84 2.08-83.58 11.39-21.58 6.21-56.01 1.9-74.18-13.14-8.49-7.42-25.46-33.77-26.68-41.22 26.89 9.77 62.63-12.94 89.06-15.36 24.78-2.26 53.57 9.08 64.58 33.69 0.74 1.64 3.41 4.93 5.85 5.09 5.31 0.33 15.33 2.22 25.57 10.76 0 0 3.55 2.65 0.29 7.87z"/>
  <path d="m176.77 194.37s-48.45-24.29-14.91-48.85c42.93 2.64 14.91 48.85 14.91 48.85z"/>
  <path d="m177.43 196.68s-28.24 46.27 13.22 49.33c35.01-24.97-13.22-49.33-13.22-49.33z"/>
  <path d="m178.04 195.58s24.29-48.45 48.85-14.91c-2.64 42.92-48.85 14.91-48.85 14.91z"/>
  <path d="m175.73 196.24s-46.27-28.24-49.33 13.22c24.97 35.01 49.33-13.22 49.33-13.22z"/>
  <path d="m203.74 109.67s-38.27-38.39 1.32-51.06c39.88 16.1-1.32 51.06-1.32 51.06z"/>
  <path d="m203.63 112.07s-41.44 34.94-3.09 50.98c41.13-12.6 3.09-50.98 3.09-50.98z"/>
  <path d="m204.56 111.22s38.39-38.27 51.06 1.32c-16.11 39.88-51.06-1.32-51.06-1.32z"/>
  <path d="m202.16 111.11s-34.94-41.44-50.98-3.09c12.6 41.13 50.98 3.09 50.98 3.09z"/>
  <path d="m272.34 164.44s-22.44-49.34 19.08-47.38c31.74 29.02-19.08 47.38-19.08 47.38z"/>
  <path d="m271.41 166.65s-51.03 18.27-20.7 46.69c42.93 2.56 20.7-46.69 20.7-46.69z"/>
  <path d="m272.57 166.18s49.34-22.44 47.38 19.08c-29.02 31.74-47.38-19.08-47.38-19.08z"/>
  <path d="m270.36 165.25s-18.27-51.03-46.69-20.7c-2.56 42.93 46.69 20.7 46.69 20.7z"/>
  <path d="m106.42 143.56s-0.29-54.2 36.79-35.43c17.09 39.47-36.79 35.43-36.79 35.43z"/>
  <path d="m104.66 145.2s-54.04-4.21-37.99 34.13c38.12 19.9 37.99-34.13 37.99-34.13z"/>
  <path d="m105.91 145.24s54.2-0.29 35.43 36.79c-39.47 17.09-35.43-36.79-35.43-36.79z"/>
  <path d="m104.28 143.48s4.21-54.04-34.13-37.99c-19.91 38.13 34.13 37.99 34.13 37.99z"/>
  <path d="m130.37 67.72s11.3-41.21 35.46-19.07c4.58 33.59-35.46 19.07-35.46 19.07z"/>
  <path d="m128.68 68.59s-40.13-14.68-36.09 17.83c24.71 23.21 36.09-17.83 36.09-17.83z"/>
  <path d="m129.62 68.89s41.21 11.3 19.07 35.46c-33.58 4.58-19.07-35.46-19.07-35.46z"/>
  <path d="m128.76 67.21s14.68-40.13-17.83-36.09c-23.22 24.7 17.83 36.09 17.83 36.09z"/>
  <path d="m98.3 220.74s-15.27-39.91 17.3-36.35c23.57 24.36-17.3 36.35-17.3 36.35z"/>
  <path d="m97.46 222.43s-41.04 11.9-18.55 35.73c33.65 4.09 18.55-35.73 18.55-35.73z"/>
  <path d="m98.39 222.12s39.91-15.27 36.35 17.3c-24.36 23.57-36.35-17.3-36.35-17.3z"/>
  <path d="m96.7 221.27s-11.9-41.04-35.73-18.55c-4.09 33.66 35.73 18.55 35.73 18.55z"/>
  <path d="m39.27 241.5s15.17-34.04 33.08-11.77c-0.47 29.56-33.08 11.77-33.08 11.77z"/>
  <path d="m37.7 242.02s-32.66-17.95-33.47 10.62c18.26 23.27 33.47-10.62 33.47-10.62z"/>
  <path d="m38.48 242.41s34.04 15.17 11.77 33.08c-29.56-0.47-11.77-33.08-11.77-33.08z"/>
  <path d="m37.95 240.84s17.95-32.66-10.62-33.47c-23.27 18.25 10.62 33.47 10.62 33.47z"/>
  <path d="m30.18 177.13s1.74-37.23 26.53-23c10.33 27.71-26.53 23-26.53 23z"/>
  <path d="m28.92 178.19s-36.95-4.83-27.31 22.07c25.46 15.04 27.31-22.07 27.31-22.07z"/>
  <path d="m29.78 178.27s37.23 1.74 23 26.53c-27.71 10.32-23-26.53-23-26.53z"/>
  <path d="m28.72 177s4.83-36.95-22.07-27.31c-15.04 25.46 22.07 27.31 22.07 27.31z"/>
  <path d="m33.99 115.94s4.26-37.03 28.03-21.16c8.42 28.35-28.03 21.16-28.03 21.16z"/>
  <path d="m32.65 116.92s-36.54-7.32-28.74 20.18c24.39 16.71 28.74-20.18 28.74-20.18z"/>
  <path d="m33.51 117.05s37.03 4.26 21.16 28.03c-28.35 8.42-21.16-28.03-21.16-28.03z"/>
  <path d="m32.53 115.71s7.32-36.54-20.18-28.74c-16.71 24.39 20.18 28.74 20.18 28.74z"/>
  <path d="m69.77 66.65s13.1-34.89 32.32-13.74c1.3 29.54-32.32 13.74-32.32 13.74z"/>
  <path d="m68.24 67.27s-33.68-15.95-32.77 12.61c19.61 22.13 32.77-12.61 32.77-12.61z"/>
  <path d="m69.03 67.6s34.89 13.1 13.74 32.32c-29.54 1.31-13.74-32.32-13.74-32.32z"/>
  <path d="m68.41 66.07s15.95-33.68-12.61-32.77c-22.13 19.62 12.61 32.77 12.61 32.77z"/>
  <path d="m188.65 34.26s32.88-17.54 33.34 11.04c-18.54 23.04-33.34-11.04-33.34-11.04z"/>
  <path d="m187.09 33.72s-14.75-34.23-32.94-12.18c0.11 29.57 32.94 12.18 32.94 12.18z"/>
  <path d="m187.47 34.5s17.54 32.88-11.04 33.34c-23.04-18.55 11.04-33.34 11.04-33.34z"/>
  <path d="m188.01 32.94s34.23-14.75 12.18-32.94c-29.56 0.11-12.18 32.94-12.18 32.94z"/>
  <path d="m255.69 62.38s-2.63-37.18 23.65-25.96c13.5 26.31-23.65 25.96-23.65 25.96z"/>
  <path d="m254.55 63.58s-37.27-0.47-24.54 25.12c27.06 11.94 24.54-25.12 24.54-25.12z"/>
  <path d="m255.42 63.55s37.18-2.63 25.96 23.65c-26.32 13.5-25.96-23.65-25.96-23.65z"/>
  <path d="m254.22 62.42s0.47-37.27-25.12-24.54c-11.95 27.06 25.12 24.54 25.12 24.54z"/>
  <path d="m337.64 140.74s12.72-35.03 32.17-14.08c1.62 29.53-32.17 14.08-32.17 14.08z"/>
  <path d="m336.11 141.38s-33.85-15.59-32.64 12.96c19.86 21.92 32.64-12.96 32.64-12.96z"/>
  <path d="m336.91 141.71s35.03 12.72 14.08 32.17c-29.52 1.62-14.08-32.17-14.08-32.17z"/>
  <path d="m336.27 140.18s15.59-33.85-12.96-32.64c-21.92 19.86 12.96 32.64 12.96 32.64z"/>
  <path d="m314.72 81.24s36.28-8.54 29.4 19.2c-23.81 17.53-29.4-19.2-29.4-19.2z"/>
  <path d="m313.35 80.31s-5.5-36.86-28.72-20.2c-7.46 28.61 28.72 20.2 28.72 20.2z"/>
  <path d="m313.52 81.16s8.54 36.28-19.2 29.4c-17.53-23.81 19.2-29.4 19.2-29.4z"/>
  <path d="m314.44 79.79s36.86-5.5 20.2-28.72c-28.61-7.46-20.2 28.72-20.2 28.72z"/>
  <path d="m555.88 189.34c1.02 2.81 1.52 5.78 1.52 8.9 0 3.6-0.63 6.6-1.87 9.02-1.25 2.42-3.13 3.63-5.62 3.63h-74.49c-5.15 0-9.37-1.4-12.65-4.22-3.28-2.81-4.92-6.64-4.92-11.48v-110.32c0-11.87-1.49-21.7-4.45-29.52 3.75-3.12 7.53-5.19 11.36-6.21 3.82-1.01 9.33-1.52 16.51-1.52h67.93c1.72 0 2.96 0.78 3.75 2.34 0.78 1.56 1.17 3.59 1.17 6.09 0 3.59-0.78 7.26-2.34 11.01s-3.51 6.17-5.86 7.26c-18.43-7.5-37.63-11.48-57.62-11.95v55.51h50.83c0.78 2.81 1.17 5.47 1.17 7.96 0 2.97-0.39 5.86-1.17 8.67h-50.6v61.6c10.31-0.31 21.7-1.76 34.2-4.33 12.49-2.58 22.09-5.35 28.81-8.31 1.88 1.11 3.32 3.06 4.34 5.87z"/>
  <path d="m694.43 207.38c-5.15 4.53-11.01 6.79-17.57 6.79-5 0-9.13-1.41-12.41-4.22s-4.92-6.63-4.92-11.48v-59.73c-0.16-12.65-1.49-21.94-3.98-27.88-2.5-5.93-7.11-8.9-13.82-8.9-7.5 0-13.59 4.57-18.27 13.7-4.68 9.14-7.03 22.45-7.03 39.94 0 17.18 0.23 28.69 0.7 34.55s1.87 11.68 4.22 17.45c-1.56 1.56-3.86 3.05-6.91 4.45s-6.44 2.11-10.19 2.11c-5.31 0-9.6-1.56-12.88-4.68s-4.92-7.26-4.92-12.42v-75.19c-0.16-4.37-0.7-7.53-1.64-9.49-0.94-1.95-2.5-2.93-4.68-2.93-2.97 0-5 0.94-6.09 2.81-1.88-3.12-2.81-6.32-2.81-9.61 0-4.68 1.6-8.47 4.8-11.36s7.69-4.33 13.47-4.33c7.18 0 12.84 2.31 16.98 6.91 4.14 4.61 6.28 11.52 6.44 20.73 6.71-18.58 19.75-27.88 39.12-27.88 12.8 0 22.29 3.95 28.46 11.83 6.17 7.89 9.25 19.72 9.25 35.49v43.8c0.46 12.99 2.02 22.83 4.68 29.54z"/>
  <path d="m838.25 197.31c0 4.53-1.91 8.28-5.74 11.24s-8.55 4.45-14.17 4.45c-7.34 0-13.04-2.65-17.1-7.96s-6.56-12.88-7.5-22.72c-7.03 21.24-20.14 31.86-39.35 31.86-14.37 0-24.91-5.39-31.62-16.16-6.72-10.77-10.07-25.14-10.07-43.1 0-21.7 4.33-38.49 13-50.36s21.04-17.8 37.13-17.8c7.18 0 13.23 1.25 18.15 3.75s8.47 6.09 10.66 10.78v-12.67c0-17.02-1.64-31.23-4.92-42.63 5-4.53 10.78-6.79 17.33-6.79 5 0 9.14 1.45 12.41 4.33 3.28 2.89 4.92 6.76 4.92 11.6l-0.24 123.21c0 8.12 2.65 12.18 7.96 12.18 2.96 0 5-0.94 6.09-2.81 2.04 3.12 3.06 6.32 3.06 9.6zm-54.34-17.92c4.68-12.1 7.03-26.66 7.03-43.68 0-10.31-1.41-18.51-4.22-24.59-2.81-6.09-8.28-9.14-16.4-9.14-8.75 0-15.11 4.41-19.09 13.24-3.98 8.82-5.97 21.82-5.97 39 0 14.84 1.32 25.77 3.98 32.79 2.65 7.03 7.34 10.54 14.05 10.54 9.06-0.01 15.93-6.06 20.62-18.16z"/>
  <path d="m864.95 204.68c-4.84-5.7-7.26-13.62-7.26-23.77v-125.79c0-5 1.64-8.9 4.92-11.71s7.5-4.22 12.65-4.22c3.75 0 7.1 0.7 10.07 2.11 2.96 1.41 5.31 2.97 7.03 4.68-1.72 6.72-2.89 13.35-3.51 19.91-0.63 6.56-0.94 15.15-0.94 25.77v86.67c0 8.28 2.81 12.42 8.43 12.42 1.25 0 2.58-0.27 3.98-0.82 1.41-0.54 2.42-1.37 3.04-2.46 2.03 2.97 3.05 6.17 3.05 9.6 0 4.68-1.99 8.55-5.97 11.6-3.98 3.04-8.86 4.57-14.64 4.57-9.06-0.01-16.01-2.85-20.85-8.56z"/>
  <path d="m1023.5 183.48c0 2.03-0.55 4.37-1.64 7.03-2.97 7.5-8.36 13.32-16.16 17.45-7.81 4.14-17.26 6.21-28.34 6.21-18.12 0-32.48-5.58-43.1-16.75-10.62-11.16-15.93-26.9-15.93-47.2 0-19.83 5.15-35.37 15.46-46.61s24.98-16.87 44.04-16.87c13.9 0 25.3 3.09 34.2 9.25 8.9 6.17 13.35 14.87 13.35 26.12 0 11.4-4.61 20.23-13.82 26.47-9.22 6.25-21.55 9.37-37.01 9.37-10 0-17.73-0.31-23.19-0.94 1.09 13.59 4.57 23.35 10.42 29.28 5.86 5.94 13.94 8.9 24.24 8.9 8.27 0 15.3-1.64 21.08-4.92 5.77-3.28 9.99-7.65 12.65-13.12 2.49 1.11 3.75 3.21 3.75 6.33zm-65.82-73.19c-4.53 8.67-6.79 20.65-6.79 35.96v0.23l7.96 0.23c9.68 0 17.76-2.03 24.24-6.09s9.72-11.87 9.72-23.42c0-13.27-5.39-19.91-16.16-19.91-8.12 0-14.45 4.33-18.97 13z"/>
  <path d="m1051.5 206.68c-7.58-5-11.36-11.63-11.36-19.91 0-4.37 1.37-8.2 4.1-11.48s7.06-4.92 13-4.92c1.09 0 2.89 0.16 5.39 0.47-0.31 1.25-0.47 3.04-0.47 5.39 0 2.66 0.31 5 0.94 7.03 0.78 5.47 3.36 10.11 7.73 13.94s10.46 5.74 18.27 5.74c6.4 0 11.55-1.21 15.46-3.63 3.9-2.42 5.86-6.05 5.86-10.89 0-3.9-1.21-7.22-3.63-9.96-2.42-2.73-5.23-5-8.43-6.79s-8.47-4.41-15.81-7.85c-8.43-4.06-15.15-7.65-20.14-10.78-5-3.12-9.29-7.34-12.88-12.65s-5.39-11.87-5.39-19.68c0-11.4 4.37-19.95 13.12-25.65 8.74-5.7 19.83-8.55 33.26-8.55 12.96 0 23.31 1.99 31.04 5.97s11.6 9.64 11.6 16.98c0 3.9-1.13 7.18-3.4 9.84-2.26 2.66-5.9 4.06-10.89 4.22-0.78 0.16-1.95 0.23-3.51 0.23-0.94 0-2.5-0.15-4.68-0.47 0.16-0.78 0.24-2.11 0.24-3.98 0-3.9-0.63-7.1-1.87-9.61-1.25-3.9-3.6-6.95-7.03-9.13-3.44-2.19-7.65-3.28-12.65-3.28-5.15 0-9.45 1.09-12.88 3.28-3.44 2.19-5.15 5.47-5.15 9.84 0 4.06 1.25 7.61 3.75 10.66 2.5 3.04 5.58 5.62 9.25 7.73s8.86 4.8 15.58 8.08c8.43 4.06 15.18 7.61 20.26 10.66 5.07 3.04 9.44 6.99 13.12 11.83 3.67 4.84 5.5 10.62 5.5 17.33 0 6.56-1.84 12.69-5.5 18.39-3.67 5.7-9.53 10.31-17.57 13.82-8.05 3.51-18.31 5.27-30.8 5.27-14.73 0-25.85-2.5-33.43-7.49z"/>
  <path d="m1163 206.68c-7.58-5-11.36-11.63-11.36-19.91 0-4.37 1.37-8.2 4.1-11.48s7.06-4.92 13-4.92c1.09 0 2.89 0.16 5.39 0.47-0.31 1.25-0.47 3.04-0.47 5.39 0 2.66 0.31 5 0.94 7.03 0.78 5.47 3.36 10.11 7.73 13.94s10.46 5.74 18.27 5.74c6.4 0 11.55-1.21 15.46-3.63 3.9-2.42 5.86-6.05 5.86-10.89 0-3.9-1.21-7.22-3.63-9.96-2.42-2.73-5.23-5-8.43-6.79s-8.47-4.41-15.81-7.85c-8.43-4.06-15.15-7.65-20.14-10.78-5-3.12-9.29-7.34-12.88-12.65s-5.39-11.87-5.39-19.68c0-11.4 4.37-19.95 13.12-25.65 8.74-5.7 19.83-8.55 33.26-8.55 12.96 0 23.31 1.99 31.04 5.97s11.6 9.64 11.6 16.98c0 3.9-1.13 7.18-3.4 9.84-2.26 2.66-5.9 4.06-10.89 4.22-0.78 0.16-1.95 0.23-3.51 0.23-0.94 0-2.5-0.15-4.68-0.47 0.16-0.78 0.24-2.11 0.24-3.98 0-3.9-0.63-7.1-1.87-9.61-1.25-3.9-3.6-6.95-7.03-9.13-3.44-2.19-7.65-3.28-12.65-3.28-5.15 0-9.45 1.09-12.88 3.28-3.44 2.19-5.15 5.47-5.15 9.84 0 4.06 1.25 7.61 3.75 10.66 2.5 3.04 5.58 5.62 9.25 7.73s8.86 4.8 15.58 8.08c8.43 4.06 15.18 7.61 20.26 10.66 5.07 3.04 9.44 6.99 13.12 11.83 3.67 4.84 5.5 10.62 5.5 17.33 0 6.56-1.84 12.69-5.5 18.39-3.67 5.7-9.53 10.31-17.57 13.82-8.05 3.51-18.31 5.27-30.8 5.27-14.73 0-25.86-2.5-33.43-7.49z"/>
  <path d="m458.23 404.32c-9.37-6.17-14.05-14.17-14.05-24.01 0-5 1.48-9.09 4.45-12.3 2.96-3.2 7.81-4.8 14.52-4.8 2.81 0 5.07 0.16 6.79 0.47-0.47 2.03-0.7 4.14-0.7 6.32 0 1.56 0.15 3.44 0.47 5.62 1.09 7.5 4.53 13.82 10.31 18.97 5.77 5.15 13.82 7.73 24.13 7.73 7.65 0 13.97-2.07 18.97-6.21s7.5-10.19 7.5-18.15c0-7.5-2.46-13.78-7.38-18.86-4.92-5.07-13.39-10.97-25.41-17.68-11.4-6.56-20.38-12.3-26.94-17.22s-11.68-10.54-15.34-16.86c-3.67-6.32-5.51-13.78-5.51-22.37 0-14.05 5.19-24.48 15.58-31.27 10.38-6.79 23.62-10.19 39.7-10.19 14.99 0 27.01 2.34 36.07 7.03 9.06 4.68 13.59 11.48 13.59 20.38 0 4.22-1.21 7.61-3.63 10.19s-6.44 3.95-12.06 4.1c-0.63 0.16-1.72 0.23-3.28 0.23-1.4 0-3.2-0.15-5.39-0.47 0.31-5.15-0.32-9.68-1.87-13.59-1.25-5.15-4.14-9.33-8.67-12.53s-10.62-4.8-18.27-4.8c-6.25 0-11.68 1.56-16.28 4.68-4.61 3.12-6.91 8.28-6.91 15.46 0 5 1.09 9.45 3.28 13.35 2.18 3.9 5.86 7.81 11.01 11.71s12.49 8.51 22.02 13.82c9.37 5.15 17.18 10.04 23.42 14.64 6.24 4.61 11.48 10.19 15.69 16.75 4.22 6.56 6.32 14.21 6.32 22.95 0 8.59-2.23 16.36-6.68 23.31s-11.24 12.49-20.38 16.63-20.34 6.21-33.61 6.21c-18.27 0.02-32.09-3.07-41.46-9.24z"/>
  <path d="m701.14 397.41c0 4.84-1.6 8.67-4.8 11.48s-7.77 4.22-13.7 4.22c-7.03 0-12.61-2.26-16.75-6.79s-6.37-11.32-6.68-20.38c-6.56 18.43-19.29 27.64-38.18 27.64-12.81 0-22.17-3.67-28.11-11.01s-8.9-19.52-8.9-36.54v-43.57c0-11.87-1.49-21.78-4.45-29.75 5.46-4.53 11.24-6.79 17.33-6.79 5.15 0 9.33 1.4 12.53 4.22 3.2 2.81 4.8 6.72 4.8 11.71l0.24 59.5c0 13.43 1.17 23.11 3.51 29.04 2.34 5.94 6.71 8.9 13.12 8.9 7.5 0 13.51-4.68 18.04-14.05s6.79-22.96 6.79-40.76c0-17.18-0.24-28.69-0.7-34.55-0.47-5.86-1.95-11.67-4.45-17.45 1.72-1.56 4.1-3.04 7.14-4.45s6.44-2.11 10.19-2.11c5 0 9.17 1.56 12.53 4.68s5.03 7.34 5.03 12.65l0.24 75.19c0 4.37 0.47 7.5 1.4 9.37 0.94 1.87 2.5 2.81 4.68 2.81 2.65 0 4.68-0.86 6.09-2.58 2.04 2.97 3.06 6.09 3.06 9.37z"/>
  <path d="m898.13 406.55c-5.16 4.53-10.93 6.79-17.33 6.79-5.16 0-9.37-1.41-12.65-4.22s-4.92-6.63-4.92-11.48v-59.73c0-12.33-0.94-21.7-2.81-28.11-1.87-6.4-5.93-9.61-12.18-9.61-4.37 0-8.4 1.99-12.06 5.97-3.67 3.98-6.67 10.04-9.02 18.15-2.34 8.12-3.6 17.96-3.75 29.51l0.23 23.19c0 12.34 1.4 22.17 4.22 29.51-4.84 4.53-10.47 6.79-16.87 6.79-4.84 0-8.83-1.41-11.95-4.22-3.13-2.81-4.68-6.63-4.68-11.48l-0.24-59.73c0-13.12-1.13-22.68-3.4-28.69-2.26-6.01-6.6-9.02-13-9.02-6.87 0-12.46 4.68-16.75 14.05-4.3 9.37-6.44 23.11-6.44 41.23 0 16.87 0.23 28.23 0.7 34.08 0.47 5.86 1.87 11.6 4.22 17.22-4.37 4.37-10.15 6.56-17.33 6.56-5 0-9.13-1.56-12.41-4.68s-4.92-7.26-4.92-12.42l-0.24-75.19c0-8.28-2.26-12.41-6.79-12.41-1.25 0-2.5 0.27-3.75 0.82s-2.19 1.45-2.81 2.69c-1.88-2.96-2.81-6.17-2.81-9.61 0-4.84 1.68-8.78 5.03-11.83 3.36-3.04 7.92-4.57 13.7-4.57 7.03 0 12.57 2.38 16.63 7.15 4.06 4.76 6.4 11.83 7.03 21.2 2.96-9.06 7.5-16.08 13.59-21.08s13.9-7.5 23.42-7.5c9.37 0 16.75 2.31 22.14 6.91 5.38 4.61 9.17 11.52 11.36 20.73 2.96-8.58 7.57-15.34 13.82-20.26 6.24-4.92 13.89-7.38 22.95-7.38 23.73 0 35.61 15.77 35.61 47.32v43.8c0.01 11.9 1.49 21.74 4.46 29.55z"/>
  <path d="m1102.1 406.55c-5.15 4.53-10.93 6.79-17.33 6.79-5.15 0-9.37-1.41-12.65-4.22s-4.92-6.63-4.92-11.48v-59.73c0-12.33-0.93-21.7-2.81-28.11-1.88-6.4-5.94-9.61-12.18-9.61-4.37 0-8.4 1.99-12.06 5.97-3.67 3.98-6.67 10.04-9.02 18.15-2.34 8.12-3.6 17.96-3.75 29.51l0.24 23.19c0 12.34 1.4 22.17 4.21 29.51-4.84 4.53-10.46 6.79-16.86 6.79-4.84 0-8.83-1.41-11.95-4.22-3.13-2.81-4.68-6.63-4.68-11.48l-0.24-59.73c0-13.12-1.13-22.68-3.39-28.69s-6.6-9.02-13-9.02c-6.87 0-12.45 4.68-16.74 14.05-4.3 9.37-6.44 23.11-6.44 41.23 0 16.87 0.23 28.23 0.7 34.08 0.47 5.86 1.88 11.6 4.22 17.22-4.37 4.37-10.15 6.56-17.33 6.56-5 0-9.14-1.56-12.42-4.68s-4.92-7.26-4.92-12.42l-0.23-75.19c0-8.28-2.26-12.41-6.79-12.41-1.25 0-2.5 0.27-3.75 0.82s-2.19 1.45-2.81 2.69c-1.88-2.96-2.81-6.17-2.81-9.61 0-4.84 1.68-8.78 5.04-11.83 3.36-3.04 7.92-4.57 13.7-4.57 7.03 0 12.57 2.38 16.63 7.15 4.06 4.76 6.4 11.83 7.03 21.2 2.96-9.06 7.5-16.08 13.59-21.08s13.9-7.5 23.42-7.5c9.37 0 16.75 2.31 22.13 6.91 5.39 4.61 9.17 11.52 11.36 20.73 2.96-8.58 7.57-15.34 13.82-20.26 6.24-4.92 13.9-7.38 22.96-7.38 23.73 0 35.6 15.77 35.6 47.32v43.8c-0.02 11.9 1.47 21.74 4.43 29.55z"/>
  <path d="m1225.8 382.66c0 2.03-0.55 4.37-1.64 7.03-2.97 7.5-8.36 13.32-16.16 17.45-7.81 4.14-17.26 6.21-28.34 6.21-18.12 0-32.48-5.58-43.1-16.75-10.62-11.16-15.93-26.9-15.93-47.2 0-19.83 5.16-35.37 15.46-46.61 10.31-11.24 24.98-16.87 44.04-16.87 13.9 0 25.3 3.09 34.2 9.25 8.9 6.17 13.35 14.87 13.35 26.12 0 11.4-4.61 20.23-13.82 26.47-9.22 6.25-21.55 9.37-37.01 9.37-10 0-17.72-0.31-23.19-0.94 1.09 13.59 4.57 23.35 10.43 29.28 5.86 5.94 13.94 8.9 24.24 8.9 8.28 0 15.3-1.64 21.08-4.92 5.77-3.28 9.99-7.65 12.65-13.12 2.49 1.1 3.74 3.2 3.74 6.33zm-65.82-73.2c-4.53 8.67-6.79 20.65-6.79 35.96v0.23l7.96 0.23c9.68 0 17.76-2.03 24.24-6.09s9.72-11.87 9.72-23.42c0-13.27-5.39-19.91-16.16-19.91-8.12 0-14.45 4.33-18.97 13z"/>
  <path d="m1333.4 293.06c5.54 4.76 8.32 11.28 8.32 19.56 0 5.94-1.8 10.85-5.39 14.76-3.6 3.9-8.12 5.94-13.59 6.09-6.24 0-10.85-1.64-13.82-4.92 1.72-2.81 2.89-5.39 3.51-7.73s0.93-5.07 0.93-8.2c0-4.06-0.86-7.15-2.58-9.25-1.72-2.11-4.3-3.16-7.73-3.16-5.78 0-10.31 4.57-13.59 13.7s-4.92 22.76-4.92 40.87c0 16.71 0.23 27.99 0.7 33.85s1.88 11.6 4.22 17.22c-1.72 1.72-4.06 3.24-7.03 4.57-2.97 1.32-6.4 2.07-10.31 2.22-4.84 0-8.98-1.56-12.41-4.68-3.44-3.12-5.16-7.34-5.16-12.65v-74.25c0-4.37-0.51-7.53-1.52-9.49-1.02-1.95-2.62-2.93-4.8-2.93-2.97 0-5 0.94-6.09 2.81-1.88-3.12-2.81-6.32-2.81-9.61 0-4.68 1.6-8.47 4.8-11.36s7.69-4.33 13.47-4.33c6.87 0 12.33 2.11 16.4 6.32 4.06 4.22 6.4 10.54 7.03 18.97 5.31-17.02 15.54-25.53 30.68-25.53 8.92 0.01 16.14 2.39 21.69 7.15z"/>
  <path d="m1376.9 279.46c0 8.51-5.92 15.53-14.79 15.53-8.6 0-15.07-6.66-15.07-15.53 0-8.5 6.19-15.43 15.07-15.43s14.79 7.11 14.79 15.43zm-26.71 0c0 6.84 4.98 12.57 11.92 12.57 7.49 0 11.47-5.54 11.47-12.48 0-6.93-4.62-12.57-11.55-12.57-7.86 0-11.84 6.2-11.84 12.48zm6.01 7.49v-15.44h6.19c3.33 0 5.92 1.3 5.92 4.44 0 1.95-1.58 3.24-2.68 3.61 1.1 0.36 2.22 1.48 2.22 4.06 0 0.93 0 2.13 0.18 3.33h-3.14c-0.28-0.92-0.36-2.4-0.36-3.24 0-2.04-0.47-2.96-2.69-2.96h-2.5v6.19h-3.14zm3.14-8.6h2.78c1.58 0 2.78-0.46 2.78-2.31 0-1.3-0.56-2.22-2.68-2.22h-2.87v4.53z" opacity=".8"/>
 </g>
</svg>
